# xmcd
#
# Track frame offsets:
#	150
#	22958
#	47350
#	70447
#	93406
#	113772
#	134712
#	161151
#	181683
#
# Disc length: 2746 seconds
#
# Revision: 0
# Processed by: cddbd v1.4PL0 Copyright (c) Steve Scherf et al.
# Submitted via: dBpowerAMP V4.0
#
DISCID=730ab809
DTITLE=Chris Duarte - Tailspin Headwhack
DYEAR=1900
DGENRE=Blues
TTITLE0=Cleopatra
TTITLE1=Crimino
TTITLE2=The Thrill Is Gone
TTITLE3=Drivin' South
TTITLE4=Catche The Next Line
TTITLE5=Tailspin Headwhack
TTITLE6=People Say
TTITLE7=Crazy
TTITLE8=Walls
EXTD=
EXTT0=
EXTT1=
EXTT2=
EXTT3=
EXTT4=
EXTT5=
EXTT6=
EXTT7=
EXTT8=
PLAYORDER=
